<svg width="576" height="448" viewBox="0 0 576 448" fill="none" xmlns="http://www.w3.org/2000/svg">
<path d="M160 0C124.7 0 96 28.7 96 64V288C96 323.3 124.7 352 160 352H512C547.3 352 576 323.3 576 288V64C576 28.7 547.3 0 512 0H160ZM336 96C380.2 96 416 131.8 416 176C416 220.2 380.2 256 336 256C291.8 256 256 220.2 256 176C256 131.8 291.8 96 336 96ZM160 120V72C160 67.6 163.6 64 168 64H216C220.4 64 224.1 67.6 223.5 72C219.9 101 196.9 123.9 168 127.5C163.6 128 160 124.4 160 120ZM160 232C160 227.6 163.6 223.9 168 224.5C197 228.1 219.9 251.1 223.5 280C224 284.4 220.4 288 216 288H168C163.6 288 160 284.4 160 280V232ZM504 127.5C475 123.9 452.1 100.9 448.5 72C448 67.6 451.6 64 456 64H504C508.4 64 512 67.6 512 72V120C512 124.4 508.4 128.1 504 127.5ZM512 232V280C512 284.4 508.4 288 504 288H456C451.6 288 447.9 284.4 448.5 280C452.1 251 475.1 228.1 504 224.5C508.4 224 512 227.6 512 232ZM48 120C48 106.7 37.3 96 24 96C10.7 96 0 106.7 0 120V384C0 419.3 28.7 448 64 448H456C469.3 448 480 437.3 480 424C480 410.7 469.3 400 456 400H64C55.2 400 48 392.8 48 384V120Z" fill="black" fill-opacity="0.1"/>
</svg>
